<?xml version="1.0" standalone="no"?><!-- Generator: Gravit.io --><svg xmlns="http://www.w3.org/2000/svg" xmlns:xlink="http://www.w3.org/1999/xlink" style="isolation:isolate" viewBox="0 -0.025747988374284603 64.10299195349714 64.02574798837429" width="64.10299195349714" height="64.02574798837429"><g opacity="0"><rect x="0.10299195349713841" y="-0.025747988374284603" width="64" height="64" transform="matrix(1,0,0,1,0,0)" fill="rgb(255,255,255)"/></g><g opacity="0.6"><path d=" M 34.49149961948763 53.00024962081816 C 34.235500054363115 53.00024962081816 33.97949953556429 52.90225004806425 33.78449984074007 52.707250353240035 C 33.39350004673372 52.316251512908 33.39350004673372 51.68425154342558 33.78449984074007 51.293248888396285 L 49.539499955180986 35.53624891891386 C 51.48849936008821 33.58624815597441 51.48849936008821 30.414249178313277 49.539499955180986 28.464250322722457 L 33.78449984074007 12.707250353240035 C 33.39350004673372 12.31624960555937 33.39350004673372 11.684249636076949 33.78449984074007 11.293249842070601 C 34.175499634746416 10.902250048064253 34.80749960422884 10.902250048064253 35.1985003519095 11.293249842070601 L 50.9534995126761 27.05025076522734 C 53.68249960422884 29.779250856780074 53.68249960422884 34.220250841521285 50.9534995126761 36.95025038375761 L 35.1985003519095 52.707250353240035 C 35.00349970341097 52.90225004806425 34.747500138286455 53.00024962081816 34.49149961948763 53.00024962081816 Z " fill="rgb(255,255,255)"/></g><g opacity="0.6"><path d=" M 29.508623140323557 53.00024771690369 C 29.252626436221995 53.00024771690369 28.996625917423167 52.90224814414978 28.801626222598948 52.70724844932556 L 13.046625154483715 36.95024847984314 C 10.317625062930981 34.22024893760681 10.317625062930981 29.779250860214233 13.047624605167309 27.051250219345093 L 28.806623476016917 11.29324984550476 C 29.197626131046214 10.902250051498413 29.829626100528635 10.902250051498413 30.220624940860667 11.29324984550476 C 30.611623781192698 11.684249639511108 30.611623781192698 12.31624960899353 30.220624940860667 12.707250356674194 L 14.461626070011059 28.46524977684021 C 12.511625307071606 30.414249181747437 12.511625307071606 33.58624625205994 14.4606228046302 35.53624701499939 L 30.215623872745432 51.29324698448181 C 30.606622713077464 51.68424963951111 30.606622713077464 52.31624960899353 30.215623872745432 52.70724844932556 C 30.020624177921214 52.90224814414978 29.764623659122385 53.00024771690369 29.508623140323557 53.00024771690369 Z " fill="rgb(255,255,255)"/></g><path d=" M 25.590220699135024 39.70810901617999 L 25.59022195556951 39.708110356376764 L 32.15952782551753 32.70085076756553 L 30.84306942480499 31.29662847463444 L 24.273763554856966 38.303888063445676 L 24.273764811291446 38.30388940364245 C 24.273331200006346 38.30435013568972 24.272897909817182 38.304811418154 24.272464941490885 38.305273251035004 C 23.90917835921167 38.69277893847877 23.90917835921167 39.32198985652235 24.27246494149089 39.709495543966106 C 24.635751523770107 40.09700123140986 25.225636759924218 40.09700123140987 25.588923342203433 39.709495543966106 C 25.58935631052973 39.7090337110851 25.589788762840357 39.7085715348837 25.590220699135024 39.70810901617999 Z  M 38.72883243903109 25.69358983855752 C 39.09082114836959 25.305971223376808 39.09038869606117 24.67779792797061 38.727535082106066 24.29075407340553 C 38.36468146815094 23.903710218840416 37.77576900322018 23.903248936378475 37.41237655118749 24.289370226019987 L 37.41237529475301 24.289368885823205 L 37.41107668139352 24.29075407340552 L 30.84306942480499 31.29662847463444 L 32.15952782551753 32.70085076756553 L 38.72753508211924 25.69497636632257 L 38.72883369546556 25.693591178754296 L 38.72883243903109 25.69358983855752 Z " fill-rule="evenodd" fill="rgb(255,255,255)"/></svg>