<?xml version="1.0" standalone="no"?><!-- Generator: Gravit.io --><svg xmlns="http://www.w3.org/2000/svg" xmlns:xlink="http://www.w3.org/1999/xlink" style="isolation:isolate" viewBox="0 0 64 64" width="64" height="64"><g opacity="0"><rect x="0" y="0" width="64" height="64" transform="matrix(1,0,0,1,0,0)" fill="rgb(255,255,255)"/></g><path d=" M 43 24 L 21 24 C 20.448 24 20 23.552 20 23 C 20 22.448 20.448 22 21 22 L 43 22 C 43.553 22 44 22.448 44 23 C 44 23.552 43.553 24 43 24 Z " fill="rgb(255,255,255)"/><path d=" M 43 33 L 21 33 C 20.448 33 20 32.552 20 32 C 20 31.448 20.448 31 21 31 L 43 31 C 43.553 31 44 31.448 44 32 C 44 32.552 43.553 33 43 33 Z " fill="rgb(255,255,255)"/><path d=" M 43 42 L 21 42 C 20.448 42 20 41.553 20 41 C 20 40.447 20.448 40 21 40 L 43 40 C 43.553 40 44 40.447 44 41 C 44 41.553 43.553 42 43 42 Z " fill="rgb(255,255,255)"/><g style="mix-blend-mode:normal;" opacity="0.6"><path d="M 15.04761904761905 12.000000000000004 L 48.952380952380956 12 C 50.63440768 12 52 13.365592319999998 52 15.047619047619051 L 52 48.952380952380956 C 52 50.63440768 50.63440768 52 48.952380952380956 52 L 15.047619047619047 52.00000000000001 C 13.36559232 52 12 50.63440768 12 48.952380952380956 L 12 15.047619047619051 C 12 13.365592319999998 13.365592319999998 12.000000000000002 15.04761904761905 12.000000000000004 Z" style="fill:none;stroke:#FFFFFF;stroke-width:2;"/></g></svg>