<?xml version="1.0" standalone="no"?><!-- Generator: Gravit.io --><svg xmlns="http://www.w3.org/2000/svg" xmlns:xlink="http://www.w3.org/1999/xlink" style="isolation:isolate" viewBox="-0.07634863330160613 0 64.0763486333016 64" width="64.0763486333016" height="64"><g opacity="0.6"><path d=" M 38.096 11.000000000000007 L 14.385999999999996 11 C 12.784 11 11 12.274999999999999 10.999999999999998 14.104999999999997 L 10.999999999999995 49.895 C 10.999999999999995 51.725 12.783999999999995 53 14.385999999999994 53 L 50.175999999999995 53.00000000000001 C 51.812999999999995 53.00000000000001 52.99999999999999 51.69400000000001 52.99999999999999 49.89500000000001 L 53 26.198000000000008 L 38.096 11.000000000000007 Z  M 14.385999999999994 51 C 13.711999999999994 51 12.999999999999995 50.432 12.999999999999995 49.895 L 12.999999999999998 14.105999999999995 C 12.999999999999998 13.567999999999998 13.712 13 14.386 13 L 37.256 13.000000000000007 L 51 27.01400000000001 L 50.99999999999999 49.89500000000001 C 50.99999999999999 50.15400000000001 50.93999999999999 51.00000000000001 50.175999999999995 51.00000000000001 L 14.385999999999994 51 Z " fill-rule="evenodd" fill="rgb(255,255,255)"/></g><path d="M 35 12 L 20 12 L 20 22.5 C 20 23.32787253 20.67212747 24 21.5 24 L 33.5 24 C 34.32787253 24 35 23.32787253 35 22.5 L 35 12 Z" style="fill:none;stroke:#FFFFFF;stroke-width:2;stroke-linecap:square;stroke-miterlimit:3;"/><path d="M 35 12 L 25 12 L 25 22.77525512860841 C 25 23.451210218797396 25.5487897812026 24 26.224744871391586 23.999999999999996 L 33.775255128608414 24 C 34.4512102187974 24 34.99999999999999 23.451210218797396 35 22.77525512860841 L 35 12 Z" style="stroke:none;fill:#FFFFFF;stroke-linecap:square;stroke-miterlimit:3;"/><path d="M 35 12 L 25 12 L 25 22.77525512860841 C 25 23.451210218797396 25.5487897812026 24 26.224744871391586 23.999999999999996 L 33.775255128608414 24 C 34.4512102187974 24 34.99999999999999 23.451210218797396 35 22.77525512860841 L 35 12 Z" style="fill:none;stroke:#FFFFFF;stroke-width:2;stroke-linecap:square;stroke-miterlimit:3;"/><path d="M 20 52 L 44 52 L 44 34.44948974278318 C 44 33.09757956240521 42.9024204375948 32 41.55051025721682 32 L 22.449489742783182 32 C 21.097579562405205 32 20 33.09757956240521 20 34.44948974278318 L 20 52 Z" style="fill:none;stroke:#FFFFFF;stroke-width:2;stroke-linecap:square;stroke-miterlimit:3;"/></svg>