<?xml version="1.0" standalone="no"?><!-- Generator: Gravit.io --><svg xmlns="http://www.w3.org/2000/svg" xmlns:xlink="http://www.w3.org/1999/xlink" style="isolation:isolate" viewBox="0.021455611266539165 0 63.99999999999999 64" width="63.99999999999999" height="64"><g opacity="0"><rect x="0.021455611266539165" y="0" width="63.99999999999999" height="64" transform="matrix(1,0,0,1,0,0)" fill="rgb(255,255,255)"/></g><path d=" M 12.058568783485693 48.671567195563625 C 12.058568783485693 50.5241776190065 13.47482454941441 52.03994861551836 15.205804319122459 52.03994861551836 L 48.90719013803328 52.03994861551836 C 50.63816728148334 52.03994861551836 52.054425673670046 50.5241776190065 52.054425673670046 48.671567195563625 L 52.054425673670046 19.53759570239469 C 52.054425673670046 17.684986082036524 50.63816728148334 16.169214282439953 48.90719013803328 16.169214282439953 L 35.722633694378466 16.169214282439953 C 33.99165354949071 16.169214282439953 31.999453779587906 15.231119787146094 31.295259468316655 14.084186324830878 C 30.591851533722284 12.938094495293857 28.599651763819484 11.999999999999998 26.868671618931725 11.999999999999998 L 15.205804319122459 11.999999999999998 C 13.47482454941441 11.999999999999998 12.058568783485693 13.515771799596573 12.058568783485693 15.368381419954737 L 12.058568783485693 48.671567195563625 Z " fill="none" vector-effect="non-scaling-stroke" stroke-width="2" stroke="rgb(255,255,255)" stroke-opacity="0.6" stroke-linejoin="miter" stroke-linecap="butt" stroke-miterlimit="4"/><path d=" M 53.05208672420106 48.68735599822946 C 52.72398756367994 50.50628183651146 51.03864427899054 51.99426288964866 49.30766413410278 51.99426288964866 L 15.606279815910803 51.99426288964866 C 13.875300046202756 51.99426288964866 12.727345797537552 50.50628183651146 13.05623208509498 48.68735599822946 L 17.50091560236126 24.05690849758863 C 17.829014762882384 22.237982659306624 19.51435954829063 20.75 21.245338192459542 20.75 L 54.946723261010945 20.75 C 56.677703405898704 20.75 57.825657279384195 22.237982659306624 57.49677174218619 24.05690849758863 L 53.05208672420106 48.68735599822946 Z " fill="none" vector-effect="non-scaling-stroke" stroke-width="2" stroke="rgb(255,255,255)" stroke-linejoin="miter" stroke-linecap="butt" stroke-miterlimit="4"/></svg>