<?xml version="1.0" standalone="no"?><!-- Generator: Gravit.io --><svg xmlns="http://www.w3.org/2000/svg" xmlns:xlink="http://www.w3.org/1999/xlink" style="isolation:isolate" viewBox="0 0 64 64" width="64" height="64"><g opacity="0"><rect x="0" y="0" width="64" height="64" transform="matrix(1,0,0,1,0,0)" fill="rgb(255,255,255)"/></g><g style="mix-blend-mode:normal;" opacity="0.6"><path d="M 34.963837380518605 40.97384346397131 L 34.963837380518605 32.25182853364639 C 34.963837380518605 31.32832107043551 35.33220195163343 30.589515099866816 35.9760912426065 30.226268831003868 C 36.61998053357958 29.86302256214092 37.42359429983279 29.939981517408498 38.182285557413465 30.436623308735236 L 52.84299583218947 40.031865851496214 C 53.57772841847812 40.513115851769435 54 41.230373314863215 54 41.99996286753894 L 54 41.99996286753894 C 54 42.769552420214666 53.578726696448626 43.486809883308446 52.84299583218947 43.968059883581674 L 38.18328383538396 53.564328545746235 C 37.424592577803296 54.059944217669404 36.621977089520584 54.136903172936975 35.97708952057701 53.77365690407403 C 35.33320022960393 53.40938451580752 34.963837380518605 52.67160466464239 34.96383738051861 51.74809720143151 L 34.9638373805186 43.02608227110659 L 14.998277970500887 43.026082271106596 C 14.447228530784395 43.026082271106596 13.999999999999998 42.567406897711855 14 41.999962867538954 C 13.999999999999998 41.432518837366054 14.447228530784395 40.97384346397132 14.998277970500887 40.97384346397132 L 34.963837380518605 40.97384346397131 Z M 36.971374379195886 32.0897016678827 C 36.965384711372884 32.13279868283254 36.96039332152038 32.18615689181806 36.96039332152038 32.25182853364639 L 36.96039332152038 51.74809720143151 C 36.96039332152038 51.81376884325984 36.96538471137289 51.86712705224535 36.97137437919589 51.9102240671952 C 37.010307220045426 51.893806156738115 37.05622800668847 51.86815317164891 37.11113329506602 51.83223899252406 L 51.77184356984202 42.23597033035949 C 51.94654221467968 42.12104495715992 51.997454391175225 42.023563613821 52.00344405899823 41.99996286753894 C 51.99845266914572 41.976362121256884 51.94754049265018 41.878880777917956 51.77184356984202 41.76395540471839 L 37.11113329506601 32.16768674255384 C 37.056228006688464 32.13177256342897 37.01030722004542 32.10714569774335 36.971374379195886 32.0897016678827 L 36.971374379195886 32.0897016678827 Z" style="stroke:none;fill:#FFFFFF;stroke-miterlimit:10;fill-rule:evenodd;"/></g><path d="M 28.80675639101444 20.981013963180345 L 28.806756391014446 28.835760407415783 L 28.806756391014446 28.835760407415783 C 28.806756391014442 29.71745569578122 28.434515168663733 30.425364719067936 27.782840833599884 30.777846465753 C 27.134192849937257 31.12836452582701 26.32010432300765 31.061599181051015 25.55141106709643 30.595223610924528 L 11.181285830278277 21.872527684601074 C 10.430750682774402 21.416952390835423 10 20.734571293492465 10 20.000152500956453 C 9.999999999999998 19.265733708420438 10.430750682774399 18.583352611077483 11.181285830278275 18.12777731731183 L 25.552419850896825 9.405081390988366 C 26.321113106808056 8.937723977556354 27.13419284993725 8.87194047608588 27.783849617400282 9.222458536159886 C 28.43451516866372 9.572976596233893 28.80675639101443 10.280885619520614 28.80675639101443 11.162580907886042 L 28.80675639101444 19.017327352121484 L 49.99121619959156 19.017327352121477 C 50.54907364121742 19.01732735212148 50.999999999999986 19.457193152998663 50.999999999999986 19.999170657650907 C 50.999999999999986 20.541148162303152 50.54907364121743 20.98101396318034 49.99121619959156 20.981013963180338 L 28.80675639101444 20.981013963180345 Z M 26.776074600792256 10.991740172723922 C 26.733705681175095 11.008431508917923 26.682257707354275 11.03395943486169 26.620721895529357 11.070287637166276 L 12.249587874910807 19.79298356348974 C 12.08011219644219 19.89607711057033 12.023620303619317 19.98444300806798 12.017567600816868 19.989352224595628 C 12.023620303619317 20.012916463928335 12.079103412641782 20.101282361425984 12.249587874910809 20.20437590850657 L 26.620721895529368 28.927071834830024 C 26.682257707354275 28.965363723745668 26.733705681175103 28.989909806383906 26.776074600792267 29.006601142577907 C 26.78313608739512 28.963400037134612 26.789188790197574 28.906453125413904 26.789188790197574 28.835760407415783 L 26.789188790197564 11.16258090788604 C 26.789188790197564 11.091888189887925 26.783136087395118 11.034941278167217 26.776074600792256 10.991740172723922 L 26.776074600792256 10.991740172723922 Z" style="stroke:none;fill:#FFFFFF;stroke-miterlimit:10;fill-rule:evenodd;"/></svg>