<?xml version="1.0" standalone="no"?><!-- Generator: Gravit.io --><svg xmlns="http://www.w3.org/2000/svg" xmlns:xlink="http://www.w3.org/1999/xlink" style="isolation:isolate" viewBox="0 0 64 64" width="64" height="64"><g opacity="0"><rect x="0" y="0" width="64" height="64" transform="matrix(1,0,0,1,0,0)" fill="rgb(255,255,255)"/></g><path d=" M 52 49.723 L 52 37 L 37.087 52 L 49.5 52 C 50.649 52 52 50.901 52 49.723 Z " fill="rgb(255,255,255)"/><g style="mix-blend-mode:normal;" opacity="0.6"><path d="M 15.04761904761905 12.000000000000004 L 48.952380952380956 12 C 50.63440768 12 52 13.365592319999998 52 15.047619047619051 L 52 48.952380952380956 C 52 50.63440768 50.63440768 52 48.952380952380956 52 L 15.047619047619047 52.00000000000001 C 13.36559232 52 12 50.63440768 12 48.952380952380956 L 12 15.047619047619051 C 12 13.365592319999998 13.365592319999998 12.000000000000002 15.04761904761905 12.000000000000004 Z" style="fill:none;stroke:#FFFFFF;stroke-width:2;"/></g></svg>