<?xml version="1.0" standalone="no"?><!-- Generator: Gravit.io --><svg xmlns="http://www.w3.org/2000/svg" xmlns:xlink="http://www.w3.org/1999/xlink" style="isolation:isolate" viewBox="-4.781476548032515e-9 3.4341596233389282e-9 64 64" width="64" height="64"><g opacity="0"><rect x="-4.781476548032515e-9" y="3.4341596233389282e-9" width="64" height="64" transform="matrix(1,0,0,1,0,0)" fill="rgb(255,255,255)"/></g><g style="opacity:0.6;"><g opacity="0.6"><path d=" M 29.50837356376438 53.00024962425232 C 29.252376859662817 53.00024962425232 28.99637634086399 52.90225005149841 28.80137664603977 52.707250356674194 L 13.046375577924536 36.95025038719177 C 10.317375486371802 34.220250844955444 10.317375486371802 29.779250860214233 13.04737502860813 27.051250219345093 L 28.80637389945774 11.29324984550476 C 29.197376554487036 10.902250051498413 29.829376523969458 10.902250051498413 30.22037536430149 11.29324984550476 C 30.61137420463352 11.684249639511108 30.61137420463352 12.31624960899353 30.22037536430149 12.707250356674194 L 14.46137649345188 28.46524977684021 C 12.511375730512427 30.414249181747437 12.511375730512427 33.58624815940857 14.46037322807102 35.53624892234802 L 30.215374296186255 51.293248891830444 C 30.606373136518286 51.68425154685974 30.606373136518286 52.31625151634216 30.215374296186255 52.707250356674194 C 30.020374601362036 52.90225005149841 29.764374082563208 53.00024962425232 29.50837356376438 53.00024962425232 Z " fill="rgb(255,255,255)"/></g></g><g style="opacity:0.6;"><g opacity="0.6"><path d=" M 34.49149961470615 53.00024962425232 C 34.23550004958164 53.00024962425232 33.97949953078281 52.90225005149841 33.78449983595859 52.707250356674194 C 33.393500041952244 52.31625151634216 33.393500041952244 51.68425154685974 33.78449983595859 51.293248891830444 L 49.53949995039951 35.53624892234802 C 51.488499355306736 33.58624815940857 51.488499355306736 30.414249181747437 49.53949995039951 28.464250326156616 L 33.78449983595859 12.707250356674194 C 33.393500041952244 12.31624960899353 33.393500041952244 11.684249639511108 33.78449983595859 11.29324984550476 C 34.17549962996494 10.902250051498413 34.80749959944736 10.902250051498413 35.198500347128025 11.29324984550476 L 50.95349950789463 27.0502507686615 C 53.68249959944736 29.779250860214233 53.68249959944736 34.220250844955444 50.95349950789463 36.95025038719177 L 35.198500347128025 52.707250356674194 C 35.00349969862949 52.90225005149841 34.74750013350498 53.00024962425232 34.49149961470615 53.00024962425232 Z " fill="rgb(255,255,255)"/></g></g><path d="M 25.590220694353548 39.70798420663107 L 25.590221950788035 39.70798554682784 L 32.15952782073605 32.700725958016605 L 30.843069420023514 31.296503665085517 L 24.27376355007549 38.303763253896754 L 24.27376480650997 38.30376459409353 C 24.27333119522487 38.304225326140795 24.272897905035705 38.30468660860508 24.272464936709408 38.30514844148608 C 23.909178354430193 38.692654128929846 23.909178354430193 39.32186504697343 24.272464936709415 39.709370734417185 C 24.63575151898863 40.09687642186094 25.22563675514274 40.09687642186095 25.588923337421956 39.709370734417185 C 25.589356305748254 39.70890890153618 25.58978875805888 39.70844672533478 25.590220694353548 39.70798420663107 Z M 38.72883243424961 25.6934650290086 C 39.090821143588116 25.305846413827886 39.09038869127969 24.677673118421687 38.72753507732459 24.29062926385661 C 38.364681463369465 23.903585409291495 37.7757689984387 23.903124126829553 37.412376546406016 24.289245416471065 L 37.412375289971536 24.289244076274283 L 37.41107667661204 24.290629263856598 L 30.843069420023514 31.296503665085517 L 32.15952782073605 32.700725958016605 L 38.72753507733776 25.69485155677365 L 38.728833690684084 25.693466369205375 L 38.72883243424961 25.6934650290086 Z" style="stroke:none;fill:#FFFFFF;stroke-miterlimit:10;"/></svg>